<?xml version="1.0" encoding="utf-8"?>
<!-- Generator: Adobe Illustrator 22.1.0, SVG Export Plug-In . SVG Version: 6.00 Build 0)  -->
<svg version="1.1" id="Layer_1" xmlns="http://www.w3.org/2000/svg" xmlns:xlink="http://www.w3.org/1999/xlink" x="0px" y="0px"
	 viewBox="0 0 82.6 51.7" style="enable-background:new 0 0 82.6 51.7;" xml:space="preserve">
<style type="text/css">
	.st0{fill:#FFFFFF;}
	.st1{filter:url(#Adobe_OpacityMaskFilter);}
	.st2{mask:url(#mask-2_1_);fill:#FFFFFF;}
	.st3{fill:#FEFEFE;}
</style>
<title>NAV logo / hvit</title>
<desc>Created with Sketch.</desc>
<g id="Modul-forslag">
	<g id="NAV-logo-_x2F_-hvit-">
		<g id="Page-1-Copy">
			<polygon id="Fill-3" class="st0" points="0,37.2 5.3,24.1 10.4,24.1 5.1,37.2 			"/>
			<polygon id="Fill-5" class="st0" points="65.2,37.2 70.5,24.1 73.2,24.1 68,37.2 			"/>
			<g id="Group-9" transform="translate(246.000000, 77.942000)">
				<g id="Clip-8">
				</g>
				<defs>
					<filter id="Adobe_OpacityMaskFilter" filterUnits="userSpaceOnUse" x="-170.5" y="-53.9" width="6.7" height="13.1">
						<feColorMatrix  type="matrix" values="1 0 0 0 0  0 1 0 0 0  0 0 1 0 0  0 0 0 1 0"/>
					</filter>
				</defs>
				<mask maskUnits="userSpaceOnUse" x="-170.5" y="-53.9" width="6.7" height="13.1" id="mask-2_1_">
					<g class="st1">
						<polygon id="path-1_1_" class="st0" points="-163.8,-40.8 -163.8,-53.9 -170.5,-53.9 -170.5,-40.8 						"/>
					</g>
				</mask>
				<polygon id="Fill-7" class="st2" points="-170.5,-40.8 -165.3,-53.9 -163.8,-53.9 -169,-40.8 				"/>
			</g>
			<path id="Combined-Shape" class="st3" d="M38.4,51.7c-14.3,0-25.9-11.6-25.9-25.9C12.5,11.6,24.1,0,38.4,0
				c14.3,0,25.9,11.6,25.9,25.9C64.3,40.2,52.7,51.7,38.4,51.7z M60.4,24.1h-4.6c0,0-0.3,0-0.4,0.3l-2.5,7.8l-2.5-7.8
				c-0.1-0.3-0.4-0.3-0.4-0.3h-8.8c-0.2,0-0.4,0.2-0.4,0.4v2.6c0-2.1-2.2-3-3.5-3c-2.9,0-4.9,1.9-5.5,4.9c0-1.9-0.2-2.6-0.7-3.4
				c-0.2-0.3-0.6-0.6-1-0.9c-0.8-0.5-1.5-0.6-3-0.6h-1.8c0,0-0.3,0-0.4,0.3l-1.6,4v-3.9c0-0.2-0.2-0.4-0.4-0.4h-4.1
				c0,0-0.3,0-0.4,0.3l-1.7,4.1c0,0-0.2,0.4,0.2,0.4h1.6v7.9c0,0.2,0.2,0.4,0.4,0.4h4.1c0.2,0,0.4-0.2,0.4-0.4v-7.9h1.6
				c0.9,0,1.1,0,1.5,0.2c0.2,0.1,0.4,0.2,0.5,0.4c0.2,0.4,0.3,0.9,0.3,2.3v5c0,0.2,0.2,0.4,0.4,0.4h3.9c0,0,0.4,0,0.6-0.4l0.9-2.1
				c1.1,1.6,3,2.6,5.4,2.6h0.5c0,0,0.4,0,0.6-0.4l1.5-3.7v3.8c0,0.2,0.2,0.4,0.4,0.4h4c0,0,0.4,0,0.6-0.4c0,0,1.6-3.9,1.6-4h0
				c0.1-0.3-0.4-0.3-0.4-0.3h-1.4v-6.8l4.5,11.1c0.2,0.4,0.6,0.4,0.6,0.4h4.7c0,0,0.4,0,0.6-0.4l4.9-12.2
				C60.9,24.1,60.4,24.1,60.4,24.1z M40.7,32.4H38c-1.1,0-1.9-0.9-1.9-1.9c0-1.1,0.9-1.9,1.9-1.9h0.7c1.1,0,1.9,0.9,1.9,1.9V32.4z"
				/>
		</g>
	</g>
</g>
</svg>
